<?xml version="1.0" encoding="UTF-8"?><svg id="Layer_2" xmlns="http://www.w3.org/2000/svg" viewBox="0 0 426.63 253.12"><defs><style>.cls-1{fill:#b1870f;}.cls-2{fill:#223870;}</style></defs><g id="Layer_1-2"><path class="cls-1" d="M181.15,78.19c-.1-.12-1.09-1.24-3.44-3.51-2.63-2.54-5.91-4.28-6.04-4.35l-5.38-2.84v42.84l16.54-30.22-1.67-1.93Z"/><path class="cls-1" d="M377.63,73.17c-17.12,8.64-31.04,22.1-40.25,38.93l-46.21,84.41v-126.6h-3.67c-18.16,0-40.23,19.85-49.04,37.76l-45.25,86.62v-35.16l-26.92,49.18v44.8h3.67c11.47,0,22.75-8.63,31.17-19.02,3.4-4.2,6.26-8.81,8.76-13.6l54.34-104.03s0,0,.02,0v136.64h3.67c11.23,0,20.96-7.74,29.55-17.23,5.02-5.54,9.26-11.75,12.85-18.31l83.54-152.61-16.24,8.2Z"/><path class="cls-2" d="M224.54,69.9c-15.11,0-29.01,8.23-36.26,21.49l-61.04,111.51V69.9h-3.67c-16.31,0-33.68,14.32-41.05,28.17L0,253.12h6.11c13.16,0,23.83-5.9,32.33-16.63,2.12-2.68,3.89-5.61,5.5-8.63l56.37-105.92v131.18h3.67c15.68,0,30.9-12.02,40.69-26.47,1.1-1.62,2.07-3.32,3.01-5.03l83.05-151.71h-6.2Z"/><path class="cls-1" d="M418.81,92.15l-1.14-15.92c-.02-.33-2.24-30.87-5.93-45.36-10.04,4.59-47.71,22.65-77.4,47.85,0,0,34.75-39.43,64.56-62.18,10.08-7.69,21.09-14.58,21.2-14.65l3.04-1.9.66,3.52c.29,1.54,6.97,38.19-1.31,73.1l-3.69,15.53Z"/></g></svg>