<?xml version="1.0" encoding="UTF-8"?>
<svg id="Layer_1" data-name="Layer 1" xmlns="http://www.w3.org/2000/svg" viewBox="0 0 152.4554 126.6948">
  <defs>
    <style>
      .cls-1 {
        fill: #cda43f;
      }

      .cls-2 {
        fill: #525356;
      }

      .cls-3 {
        fill: #204483;
      }

      .cls-4 {
        fill: #cca33d;
      }

      .cls-5 {
        fill: #cda33d;
      }

      .cls-6 {
        fill: #515356;
      }

      .cls-7 {
        fill: #505257;
      }

      .cls-8 {
        fill: #525457;
      }

      .cls-9 {
        fill: #d0a33f;
      }

      .cls-10 {
        fill: #505156;
      }

      .cls-11 {
        fill: #525357;
      }

      .cls-12 {
        fill: #cba33e;
      }
    </style>
  </defs>
  <path class="cls-9" d="M108.3988,48.5149l8.5239-.0158.7843-.7187,1.6267-1.5735,1.6041-1.5234,2.1457-2.0716,2.6625-2.419c-.5238-1.0954-.2394-2.3187.6393-3.0028.8808-.6856,2.1864-.6755,3.0357.1028.5685.5209.881,1.3413.7504,2.0934-.2665,1.5347-1.753,2.402-3.2253,1.9232l-3.0587,2.8115-5.4923,5.2009c-.3624.3431-.8368.7614-1.3635.7639l-8.3996.0393c-.4979.0023-.8442-.1969-.9357-.6811-.0686-.3633.1633-.9282.7025-.9292Z"/>
  <path class="cls-9" d="M110.8581,55.4975l-6.169-.0361c-.3736-.0022-.5721-.4781-.5936-.7639-.0203-.2691.1311-.8501.5332-.8519l10.2848-.0459,2.1822-.0493,2.0636-1.5414c.6659-.5579,1.4495-.7074,2.2888-.7761l2.5858-.2115c.3144-1.0422,1.281-1.6992,2.3339-1.6292,1.0262.0683,1.9485.8644,2.079,1.9697.1531,1.297-.8745,2.4077-2.1452,2.4638-.9109.0403-1.7062-.3677-2.1319-1.1829l-3.3053.2812c-.4148.0353-.7248.3688-1.055.5847l-2.399,1.678-6.5524.1107Z"/>
  <path class="cls-9" d="M101.2957,60.8902c-.5044.0012-.7676-.2267-.9169-.6274-.1035-.2778,0-.869.4211-.9851l11.2205-.0081c.614-.0004,1.1537.1947,1.6335.5048l1.146.7407c.2604.0903.5393.0867.8241.0814l2.7593-.0515c.4211-1.1781,1.7113-1.754,2.8545-1.3513,1.1827.4166,1.8248,1.7333,1.3666,2.9302-.3666.843-1.1544,1.3325-2.0267,1.3517-.9022.0199-1.6974-.4817-2.1166-1.3309l-3.3027.0607c-.4147.0076-.7904-.0933-1.1275-.3059l-1.1952-.75c-.4612-.2894-.8946-.2843-1.4414-.283l-10.0984.0236Z"/>
  <path class="cls-5" d="M54.4373,23.5043l-5.3499,8.7973c-.1935-.0907-.0427-.2566-.0419-.3661l.0407-5.4592.0212-6.7317,1.5945.414c1.1041.3917,2.0312,1.0853,2.7526,2.0021l.9829,1.3436Z"/>
  <g>
    <polygon class="cls-6" points="77.5578 80.7607 71.9113 99.3871 68.1823 99.3578 64.9095 88.9219 64.2957 86.9454 61.2391 96.6152 60.3232 99.3771 56.5347 99.3709 52.3707 85.5213 50.9236 80.7581 54.8525 80.7559 58.6583 94.0706 62.736 80.7583 65.841 80.7618 68.9977 91.2185 69.8821 94.1092 73.6327 80.7534 77.5578 80.7607"/>
    <path class="cls-6" d="M15.6228,99.3751l-.1595-.0772c-1.0301-.0397-2.0641-.0566-3.1019-.0507l-8.3103-11.6963-.0762.0338c-.0484-.0681-.066-.1655-.2329-.261l.0147,11.8823c.0101.1065-.0207.1666-.0903.1667l-.1948-.073-3.1823-.0005-.1596-.0303c-.0627-5.8954-.0804-11.8013-.0532-17.7175-.0639-.421.0129-.6814.2302-.7811l3.1339-.0103,8.4795,11.99.018-11.9857,3.738.0014.0046,18.1181c0,.2159.0835.3728-.058.4913Z"/>
    <polygon class="cls-8" points="30.8424 91.6635 23.3399 91.6909 23.3496 96.063 31.7715 96.0527 31.7831 99.3924 19.6142 99.3879 19.6097 80.8089 31.4472 80.8228 31.449 84.1788 23.3438 84.1948 23.3547 88.3492 30.8372 88.3475 30.8424 91.6635"/>
    <polygon class="cls-6" points="43.4961 99.3703 39.7915 99.3718 39.7873 84.0586 34.2828 84.0559 34.2797 80.8036 48.9779 80.8083 48.9805 84.0546 43.5062 84.0669 43.4961 99.3703"/>
    <path class="cls-6" d="M.3067,80.7703c-.1511.1576-.1545.3035-.1544.5669l.0059,17.5433c0,.1171.0429.3421.1484.3422l3.218.0039.0088-1.5774.1243-.0002.0089,1.7236-3.6403.0032-.0245-.9614-.0016-16.8407.0244-.7945c.103-.0226.196-.0139.2823-.009Z"/>
    <path class="cls-6" d="M15.6228,99.3751l-.3112-.0032c-.9856-.0457-1.9806-.0564-2.9852-.0321l-8.3515-11.755c-.0191-.0618-.0113-.1516.0709-.1535l8.3784,11.7626,3.1127.0216c.0092-.1676-.0241-.2842.0631-.4055l.0229.5652Z"/>
    <path class="cls-6" d="M15.3116,99.3719l-2.9852-.0321,2.9022-.0488c.0553,0,.0881.0478.083.0809Z"/>
    <g>
      <path class="cls-8" d="M97.3606,94.9622c-1.9512,3.3706-5.7173,5.2611-9.586,4.8119s-7.1014-3.1523-8.2285-6.8803c-.0238-.0552-.0442-.154.0283-.2453.5273,1.86,1.5707,3.5637,3.1332,4.7953,3.6361,2.8662,9.2176,2.7749,12.6485-.1969.8357-.7239,1.4787-1.5209,2.0192-2.4147.0741.0608.0514.1314-.0147.13Z"/>
      <path class="cls-8" d="M95.7448,83.0868c-3.1871-3.1251-8.0865-3.694-11.9049-1.3822s-5.5854,6.9167-4.2938,11.1893l.0359-.0458c1.1155,3.752,4.329,6.3439,8.2095,6.7769,4.0139.4479,7.3625-1.321,9.5281-4.6483.0585-.0899.0653-.097.041-.0145,2.2363-3.863,1.5714-8.7503-1.6158-11.8754ZM88.8997,96.2506c-3.4066,0-6.1682-2.7615-6.1682-6.1682s2.7616-6.1682,6.1682-6.1682,6.1682,2.7615,6.1682,6.1682-2.7616,6.1682-6.1682,6.1682Z"/>
    </g>
    <g>
      <g>
        <path class="cls-6" d="M149.9995,80.7676c.771.0342,1.5522.0687,2.3436.1036l.0171.0748-.0148,18.301c-1.1526.0573-2.3195.0743-3.5008.0509-.0246-2.6116-.0492-5.206-.0738-7.783l-.0654-.0637-6.5897-.0159c2.2239-.0193,4.4299.001,6.6178.0608l-8.3458.0719-.0066,7.8213-3.7162-.0006.0066-18.6265,3.6981.0006.0187,7.4267,8.3189-.0067.0119-7.4063,1.2803-.0089Z"/>
        <path class="cls-6" d="M148.7336,91.4961l-7.0195-.0268c-.0086-.0241.0179-.0698.0426-.0698l7.0431.007.0766.9735-.0057,4.2268c-.0012.874-.1155,1.7087.0678,2.6l3.3225-.013.0083-18.2233c-.7096-.134-1.3562-.1343-2.0421-.1083-.11.0042-.2085-.0126-.2278-.0946l2.415-.0029c.0867.2101.0086.3533.0085.5747l-.0017,17.2315.0096.8168-3.7159.0095.0342-.8961-.0157-7.005Z"/>
      </g>
      <g>
        <path class="cls-8" d="M122.0581,80.851l.0399.0796,11.1735-.0088.0168,3.0361-.0654.0237h-5.229s-.1481.0845-.1481.0845l-.0195,14.0362c-.0861.3815-.1496.7623-.1904,1.1425l-.0887.0413-3.3842.0113-.0259-.0705-.0028-15.1505-.1294-.083c-1.8387-.0303-3.6692-.0621-5.4916-.0953l-.0035-3.1178,3.3684-.0079c.083-.0002.1448.0348.1798.0787Z"/>
        <path class="cls-8" d="M127.8264,98.1024l-.0017,1.2914-3.7732-.0029.0108-15.3282-2.3427-.0033c-1.0699-.0286-2.1384-.0554-3.2056-.0805l-.0006-.0809c.1131-.1212.2572-.0179.4045-.0185l1.9946-.0076,3.2938.0554.0165,15.2765,3.1171.0037c.4804.0006.0115-.6604.4866-1.1053Z"/>
        <path class="cls-8" d="M122.0581,80.851l10.6644-.0004c.2338,0,.4156-.085.6369.006l-.0014,3.2004-5.5121.0092c.0344-.0468.0347-.135.1242-.1689l5.2486.0089.003-2.9052-13.6748.0115c-.3553-.1286-.6851-.0626-.9341.1662-.0287-.1217-.0392-.2271-.0258-.3316l3.4712.004Z"/>
        <path class="cls-8" d="M121.7196,84.0594l-3.1275-.0021c-.0579,0-.0839-.0458-.0781-.0784l3.1191-.0018c.0639.0146.0846.0532.0865.0823Z"/>
      </g>
      <path class="cls-6" d="M112.4272,92.32c2.6137-1.0298,3.9881-3.0724,3.9115-5.8417-.0236-1.6469-.688-3.1842-1.949-4.2338-1.2469-.9657-2.7238-1.4329-4.3228-1.4343l-8.0491-.0073.0062,18.5851,3.7739.0032.0099-6.7136,2.7559-.0148,3.9827,6.6982,4.121-.003-4.2402-7.038ZM109.1371,89.4017l-3.332.0189-.0009-5.3494,4.116.0576c.7264.0101,1.3921.2607,1.9004.7625.5184.5959.713,1.3654.6268,2.1896-.1777,1.701-1.6907,2.3117-3.3104,2.3209Z"/>
    </g>
  </g>
  <g>
    <path class="cls-8" d="M70.3432,123.1323l-.1173.0478c-5.0601,6.2433-15.5355,3.5289-16.6703-4.5412l-.053.0541c-.3826-2.1985-.1541-4.4897.8312-6.5595,1.0778-2.2641,3.0138-4.0007,5.3632-4.846,1.2022-.4325,2.3835-.569,3.6441-.5357,3.5182.0929,7.2728,2.0871,8.1504,5.6146l-2.3493.3104c-.6237-1.4169-1.6923-2.4041-3.0837-3.0603-1.7644-.7464-3.8015-.8934-5.6321-.2071-2.8008,1.05-4.5931,3.7135-4.7477,6.6716-.093,1.7795.2303,3.4655,1.1604,4.9586,1.036,1.6631,2.6177,2.8129,4.5519,3.1843,1.3085.2513,2.6304.191,3.9085-.1819,2.5174-.7345,4.1512-2.9355,4.4784-5.5397l-6.5419-.0085.0184-2.1049,8.8466-.0113-.0651,2.2918c-.1663,1.639-.7162,3.1976-1.6926,4.4629Z"/>
    <polygon class="cls-11" points="90.9812 126.3238 88.6999 126.3223 88.7092 109.4016 82.2262 109.3969 82.2287 107.2519 97.3434 107.2601 97.3397 109.3944 90.9825 109.4041 90.9812 126.3238"/>
    <polygon class="cls-2" points="129.8009 124.1684 129.7861 126.3262 118.3377 126.321 118.3434 107.264 120.6472 107.2641 120.6438 124.1689 129.8009 124.1684"/>
    <rect class="cls-10" x="76.5791" y="107.2463" width="2.2445" height="19.09"/>
    <rect class="cls-7" x="47.0113" y="107.2456" width="2.273" height="19.0883"/>
    <path class="cls-8" d="M70.3432,123.1323l-.9622,1.0915c-1.5978,1.5018-3.6276,2.3018-5.8222,2.4523-.7287.05-1.4339-.0061-2.163-.1048-2.0727-.2806-3.8847-1.229-5.3407-2.7173-1.1829-1.2092-2.0332-2.7005-2.3958-4.3217l-.0664-.2408-.0003-.1572-.0794-.2333-.0108-.2081c-.0055-.1063-.0238-.2491.0687-.3447.4652,3.6775,3.0775,6.8871,6.6596,7.8119,1.0971.2832,2.2068.4305,3.3217.3525,2.2313-.1561,4.2901-1.0051,5.8784-2.5487.2898-.2817.4475-.6331.8049-.8579-.0057-.0909.1038-.0662.1073.0263Z"/>
    <path class="cls-8" d="M53.5927,119.1343c-.0894-.0449-.0749-.1457-.0794-.2333.0884.0424.0793.1462.0794.2333Z"/>
    <path class="cls-8" d="M53.6594,119.5323c-.0754-.0499-.0663-.1537-.0664-.2408.1285.0345.0513.1734.0664.2408Z"/>
    <path class="cls-11" d="M42.3743,112.9359c-.8975-2.3067-2.6773-4.006-4.9529-4.8958-1.3715-.505-2.7446-.7739-4.2238-.7742l-6.4094-.0012-.0042,19.0557,5.3207.002c1.3155.0005,2.5445-.1176,3.8176-.403,1.5394-.4023,2.9519-1.0476,4.1599-2.0977,3.032-2.6357,3.6913-7.2891,2.2919-10.8858ZM40.4158,119.0413c-.6639,2.6737-2.8719,4.2514-5.4466,4.8284-.9523.2006-1.8806.3002-2.8607.2988l-3.0068-.0043-.0099-14.784,3.7969.0095c1.2773.0032,2.4819.2076,3.6444.7118,1.9778.7747,3.3815,2.3989,3.8884,4.4761.3557,1.4576.3677,2.9594-.0057,4.4636Z"/>
    <g>
      <path class="cls-6" d="M105.2618,107.2559c-.0291.1263-.2801.1703-.3476.2398l-2.1575,5.3422-5.2471,13.1033c-.0437.1092-.0061.2536-.0637.2859-.0462.0259-.1565.0208-.2051-.0306l7.5945-18.9175.4265-.0231Z"/>
      <path class="cls-6" d="M107.2321,107.267l-1.9703-.0112-.347.1127c-2.5137,6.1414-5.0066,12.3243-7.4788,18.5488-.0162.1417-.0812.2347-.1952.2791-.0183.0457-.0118.0942.0201.134l2.4347-.0118,1.9417-4.9501,8.8449-.0164,1.9493,4.9586h2.4945s-7.694-19.0436-7.694-19.0436ZM102.4417,119.1953l3.5833-9.0712,3.5838,9.071-7.1671.0002Z"/>
    </g>
  </g>
  <g>
    <path class="cls-3" d="M32.1334,66.7561l.1675-15.5813.0613-6.1077.021-9.1142-1.0286,1.9685-4.4328,8.2956-5.191,9.3351c-1.2447,2.2384-2.6224,4.3331-4.2113,6.3388-1.0448,1.3188-2.4156,2.2518-3.8269,3.1202-2.4405,1.3181-5.6245,1.8193-8.3977,1.4414l7.1368-12.4634,8.2801-14.0585,7.5791-12.7237c.8244-1.384,1.6871-2.6375,2.748-3.826.8183-.9168,1.7543-1.5815,2.8238-2.1813,1.8365-1.0299,3.8156-1.6164,5.9335-1.6301l2.6586.0688-.031,33.0748,14.661-25.6925c.6215-1.0891,1.3-2.0574,2.0793-3.0182,1.0299-1.1334,2.2026-2.0425,3.5434-2.7794.8539-.4367,1.7182-.739,2.6869-.8139,1.4911-.1152,2.9508-.0953,4.4749-.0276l-8.3511,15.5836-9.5947,17.1162-3.5123,5.7928c-.7695,1.2692-1.607,2.4059-2.5794,3.5149-1.6155,1.8425-3.8939,3.4747-6.3071,4.0141l-3.2.437c-1.3886.0783-2.7202.028-4.1915-.0839Z"/>
    <g>
      <path class="cls-12" d="M54.3401,66.4951l-3.1491-.0179,2.4581-3.7834,4.636-7.391c4.7203-7.5253,9.1418-15.1777,13.6223-22.8434l3.4195-5.7234c.6465-1.0821,1.3464-2.0495,2.2013-2.9654.9076-.9724,2.024-1.6591,3.1906-2.277.8741-.463,1.758-.7207,2.7429-.8547,1.8213-.2478,3.6051-.2267,5.4942-.0327l-.4861,4.6605-.6792,10.5974c-.5106,7.6132-.7518,15.1459-.7065,22.8376.9528-.833,1.736-1.7066,2.4329-2.7116l3.9648-5.7184,4.5626-7.3918c2.7535-4.4608,5.4752-8.8805,8.4071-13.2193.8309-1.2297,1.6356-2.3921,2.6141-3.4919l1.8735-1.8835c3.1593-2.7296,7.2993-4.5258,11.4608-5.109l-1.5195,2.4148-4.2403,6.8555-9.6561,15.5611-6.7464,11.0523-1.8366,2.7973c-1.2169,1.8533-2.6275,3.5162-4.3037,4.9796-.9204.8035-1.9202,1.4184-2.9621,2.0399-1.1528.6875-2.3704,1.1046-3.682,1.4085-2.1914.4401-4.3523.6894-6.5911.6113l-3.183-.1111.0568-3.8365.9353-18.2596.454-7.9674c.0044-.0768.0045-.1499-.0297-.1737-.0279-.0194-.0913.0254-.1208.0757l-.9317,1.5879-7.8591,12.5867-4.6681,7.5174-2.591,3.7526c-2.1242,2.6745-5.1206,4.1245-8.5845,4.4267Z"/>
      <g>
        <path class="cls-1" d="M109.2327,20.7475l-3.1111,2.1631c-.2494.1734-.4284.4105-.7421.5154.1155-.3694.425-.5505.6659-.8275l2.2509-2.5893,2.0537-2.2344.8997-.9934,4.1024-4.0951c4.9258-4.6457,10.1756-8.9476,15.8892-12.6863.7325,5.3544.5318,10.6132-.4935,15.8185-.6253,3.1744-1.4952,6.2407-2.8534,9.2729l.1455-3.8472-.106-4.501c-.0386-1.6388-.3931-3.2215-.9095-4.8146-4.307,1.2894-8.3571,3.0303-12.2074,5.2968l-5.5843,3.5222Z"/>
        <path class="cls-4" d="M151.7575,50.6543l-1.3728-2.2217c-.6685-1.0818-1.132-2.2427-1.5525-3.4401-.5291-1.5066.4515-3.1487.3991-5.2436-.0957-3.8238-1.2437-7.5419-3.3102-10.7427-1.3175-2.0406-3.0389-3.6066-5.1249-4.812-2.4719-1.4283-5.1846-2.2543-8.0568-2.2452-.4617.0015-.8729.0098-1.334.2021-.2891,3.2893-1.5164,6.3957-3.7174,8.9534l1.8586,1.148c2.0423,1.4266,3.577,3.4527,4.2738,5.8635,1.006,3.4807-.0614,7.8962-1.4185,11.2289l-1.3606,3.7932c-.3463,1.2005-.6124,2.3887-.6276,3.6522-.0313,2.6161,1.6196,4.8666,3.8881,6.004l1.5168.7604c2.5207,1.0868,5.0855,1.9474,7.7692,2.5338,1.0161.2221,1.9975.1425,2.8621-.4322.7335-.4875,1.1587-1.339,1.0598-2.2292l-.1985-1.7866c-.1845-1.6607,1.5748-1.7108,1.1431-2.6868-.1631-.369-.3971-.6741-.6608-.9767l.9621-.4667c.5785-.4354.7344-1.1339.4241-1.7692-.3321-.6801-.3625-1.4692.3041-1.7312l1.577-.6198c.5691-.2236,1.0837-.788,1.1301-1.4399.0328-.4608-.2056-.9271-.4335-1.2959ZM144.3715,45.5532c-1.0114-.0334-1.9991-.2888-2.8583-.8192-.3486-.2152-.8124-.5533-.813-.9814-.0005-.3036.4047-.4944.6094-.6478.9105-.6818,2.0203-1.0024,3.1419-.7647.3943.0836.8735.2919,1.0322.6755.3353.8101.0752,2.577-1.1123,2.5377Z"/>
      </g>
    </g>
  </g>
</svg>